# xmcd CD database file
#
# Track frame offsets:
#	150
#	22621
#	39446
#	55058
#	71446
#	93998
#	120691
#	135165
#	156367
#	177387
#	198595
#
# Disc length: 2879 seconds
#
# Revision: 0
# Processed by: cddbd v1.5.2PL0 Copyright (c) Steve Scherf et al.
# Submitted via: CDex 1.51
#
DISCID=870b3d0b
DTITLE=Joss Stone - The Soul Sessions Vol. 2
DYEAR=2012
DGENRE=Blues
TTITLE0=I Got The...
TTITLE1=(For God's Sake) Give More Power To The People
TTITLE2=While You're Out Looking For Sugar
TTITLE3=Sideway Shuffle
TTITLE4=I Don't Want To Be With Nobody But You
TTITLE5=Teardrops
TTITLE6=Stoned Out Of My Mind
TTITLE7=The Love We Had (Stays On My Mind)
TTITLE8=The High Road
TTITLE9=Pillow Talk
TTITLE10=Then You Can Tell Me Goodbye
EXTD=YEAR: 2012
EXTT0=
EXTT1=
EXTT2=
EXTT3=
EXTT4=
EXTT5=
EXTT6=
EXTT7=
EXTT8=
EXTT9=
EXTT10=
PLAYORDER=
